<?xml version="1.0" encoding="utf-8"?>
<svg xmlns="http://www.w3.org/2000/svg" xmlns:xlink="http://www.w3.org/1999/xlink" style="margin: auto; background: none; display: block; shape-rendering: auto;" width="223px" height="223px" viewBox="0 0 100 100" preserveAspectRatio="xMidYMid">
<g transform="rotate(0 50 50)">
  <rect x="39" y="21" rx="11" ry="8" width="22" height="16" fill="#37bbed">
    <animate attributeName="opacity" values="1;0" keyTimes="0;1" dur="0.7462686567164178s" begin="-0.7316359379572724s" repeatCount="indefinite"></animate>
  </rect>
</g><g transform="rotate(7.0588235294117645 50 50)">
  <rect x="39" y="21" rx="11" ry="8" width="22" height="16" fill="#37bbed">
    <animate attributeName="opacity" values="1;0" keyTimes="0;1" dur="0.7462686567164178s" begin="-0.7170032191981269s" repeatCount="indefinite"></animate>
  </rect>
</g><g transform="rotate(14.117647058823529 50 50)">
  <rect x="39" y="21" rx="11" ry="8" width="22" height="16" fill="#37bbed">
    <animate attributeName="opacity" values="1;0" keyTimes="0;1" dur="0.7462686567164178s" begin="-0.7023705004389815s" repeatCount="indefinite"></animate>
  </rect>
</g><g transform="rotate(21.176470588235293 50 50)">
  <rect x="39" y="21" rx="11" ry="8" width="22" height="16" fill="#37bbed">
    <animate attributeName="opacity" values="1;0" keyTimes="0;1" dur="0.7462686567164178s" begin="-0.6877377816798361s" repeatCount="indefinite"></animate>
  </rect>
</g><g transform="rotate(28.235294117647058 50 50)">
  <rect x="39" y="21" rx="11" ry="8" width="22" height="16" fill="#37bbed">
    <animate attributeName="opacity" values="1;0" keyTimes="0;1" dur="0.7462686567164178s" begin="-0.6731050629206906s" repeatCount="indefinite"></animate>
  </rect>
</g><g transform="rotate(35.294117647058826 50 50)">
  <rect x="39" y="21" rx="11" ry="8" width="22" height="16" fill="#37bbed">
    <animate attributeName="opacity" values="1;0" keyTimes="0;1" dur="0.7462686567164178s" begin="-0.6584723441615452s" repeatCount="indefinite"></animate>
  </rect>
</g><g transform="rotate(42.35294117647059 50 50)">
  <rect x="39" y="21" rx="11" ry="8" width="22" height="16" fill="#37bbed">
    <animate attributeName="opacity" values="1;0" keyTimes="0;1" dur="0.7462686567164178s" begin="-0.6438396254023997s" repeatCount="indefinite"></animate>
  </rect>
</g><g transform="rotate(49.411764705882355 50 50)">
  <rect x="39" y="21" rx="11" ry="8" width="22" height="16" fill="#37bbed">
    <animate attributeName="opacity" values="1;0" keyTimes="0;1" dur="0.7462686567164178s" begin="-0.6292069066432543s" repeatCount="indefinite"></animate>
  </rect>
</g><g transform="rotate(56.470588235294116 50 50)">
  <rect x="39" y="21" rx="11" ry="8" width="22" height="16" fill="#37bbed">
    <animate attributeName="opacity" values="1;0" keyTimes="0;1" dur="0.7462686567164178s" begin="-0.6145741878841089s" repeatCount="indefinite"></animate>
  </rect>
</g><g transform="rotate(63.529411764705884 50 50)">
  <rect x="39" y="21" rx="11" ry="8" width="22" height="16" fill="#37bbed">
    <animate attributeName="opacity" values="1;0" keyTimes="0;1" dur="0.7462686567164178s" begin="-0.5999414691249634s" repeatCount="indefinite"></animate>
  </rect>
</g><g transform="rotate(70.58823529411765 50 50)">
  <rect x="39" y="21" rx="11" ry="8" width="22" height="16" fill="#37bbed">
    <animate attributeName="opacity" values="1;0" keyTimes="0;1" dur="0.7462686567164178s" begin="-0.585308750365818s" repeatCount="indefinite"></animate>
  </rect>
</g><g transform="rotate(77.6470588235294 50 50)">
  <rect x="39" y="21" rx="11" ry="8" width="22" height="16" fill="#37bbed">
    <animate attributeName="opacity" values="1;0" keyTimes="0;1" dur="0.7462686567164178s" begin="-0.5706760316066725s" repeatCount="indefinite"></animate>
  </rect>
</g><g transform="rotate(84.70588235294117 50 50)">
  <rect x="39" y="21" rx="11" ry="8" width="22" height="16" fill="#37bbed">
    <animate attributeName="opacity" values="1;0" keyTimes="0;1" dur="0.7462686567164178s" begin="-0.5560433128475271s" repeatCount="indefinite"></animate>
  </rect>
</g><g transform="rotate(91.76470588235294 50 50)">
  <rect x="39" y="21" rx="11" ry="8" width="22" height="16" fill="#37bbed">
    <animate attributeName="opacity" values="1;0" keyTimes="0;1" dur="0.7462686567164178s" begin="-0.5414105940883815s" repeatCount="indefinite"></animate>
  </rect>
</g><g transform="rotate(98.82352941176471 50 50)">
  <rect x="39" y="21" rx="11" ry="8" width="22" height="16" fill="#37bbed">
    <animate attributeName="opacity" values="1;0" keyTimes="0;1" dur="0.7462686567164178s" begin="-0.5267778753292361s" repeatCount="indefinite"></animate>
  </rect>
</g><g transform="rotate(105.88235294117646 50 50)">
  <rect x="39" y="21" rx="11" ry="8" width="22" height="16" fill="#37bbed">
    <animate attributeName="opacity" values="1;0" keyTimes="0;1" dur="0.7462686567164178s" begin="-0.5121451565700907s" repeatCount="indefinite"></animate>
  </rect>
</g><g transform="rotate(112.94117647058823 50 50)">
  <rect x="39" y="21" rx="11" ry="8" width="22" height="16" fill="#37bbed">
    <animate attributeName="opacity" values="1;0" keyTimes="0;1" dur="0.7462686567164178s" begin="-0.49751243781094523s" repeatCount="indefinite"></animate>
  </rect>
</g><g transform="rotate(120 50 50)">
  <rect x="39" y="21" rx="11" ry="8" width="22" height="16" fill="#37bbed">
    <animate attributeName="opacity" values="1;0" keyTimes="0;1" dur="0.7462686567164178s" begin="-0.4828797190517998s" repeatCount="indefinite"></animate>
  </rect>
</g><g transform="rotate(127.05882352941177 50 50)">
  <rect x="39" y="21" rx="11" ry="8" width="22" height="16" fill="#37bbed">
    <animate attributeName="opacity" values="1;0" keyTimes="0;1" dur="0.7462686567164178s" begin="-0.46824700029265437s" repeatCount="indefinite"></animate>
  </rect>
</g><g transform="rotate(134.11764705882354 50 50)">
  <rect x="39" y="21" rx="11" ry="8" width="22" height="16" fill="#37bbed">
    <animate attributeName="opacity" values="1;0" keyTimes="0;1" dur="0.7462686567164178s" begin="-0.4536142815335089s" repeatCount="indefinite"></animate>
  </rect>
</g><g transform="rotate(141.1764705882353 50 50)">
  <rect x="39" y="21" rx="11" ry="8" width="22" height="16" fill="#37bbed">
    <animate attributeName="opacity" values="1;0" keyTimes="0;1" dur="0.7462686567164178s" begin="-0.43898156277436345s" repeatCount="indefinite"></animate>
  </rect>
</g><g transform="rotate(148.23529411764707 50 50)">
  <rect x="39" y="21" rx="11" ry="8" width="22" height="16" fill="#37bbed">
    <animate attributeName="opacity" values="1;0" keyTimes="0;1" dur="0.7462686567164178s" begin="-0.424348844015218s" repeatCount="indefinite"></animate>
  </rect>
</g><g transform="rotate(155.2941176470588 50 50)">
  <rect x="39" y="21" rx="11" ry="8" width="22" height="16" fill="#37bbed">
    <animate attributeName="opacity" values="1;0" keyTimes="0;1" dur="0.7462686567164178s" begin="-0.40971612525607254s" repeatCount="indefinite"></animate>
  </rect>
</g><g transform="rotate(162.35294117647058 50 50)">
  <rect x="39" y="21" rx="11" ry="8" width="22" height="16" fill="#37bbed">
    <animate attributeName="opacity" values="1;0" keyTimes="0;1" dur="0.7462686567164178s" begin="-0.39508340649692714s" repeatCount="indefinite"></animate>
  </rect>
</g><g transform="rotate(169.41176470588235 50 50)">
  <rect x="39" y="21" rx="11" ry="8" width="22" height="16" fill="#37bbed">
    <animate attributeName="opacity" values="1;0" keyTimes="0;1" dur="0.7462686567164178s" begin="-0.3804506877377817s" repeatCount="indefinite"></animate>
  </rect>
</g><g transform="rotate(176.47058823529412 50 50)">
  <rect x="39" y="21" rx="11" ry="8" width="22" height="16" fill="#37bbed">
    <animate attributeName="opacity" values="1;0" keyTimes="0;1" dur="0.7462686567164178s" begin="-0.3658179689786362s" repeatCount="indefinite"></animate>
  </rect>
</g><g transform="rotate(183.52941176470588 50 50)">
  <rect x="39" y="21" rx="11" ry="8" width="22" height="16" fill="#37bbed">
    <animate attributeName="opacity" values="1;0" keyTimes="0;1" dur="0.7462686567164178s" begin="-0.35118525021949076s" repeatCount="indefinite"></animate>
  </rect>
</g><g transform="rotate(190.58823529411765 50 50)">
  <rect x="39" y="21" rx="11" ry="8" width="22" height="16" fill="#37bbed">
    <animate attributeName="opacity" values="1;0" keyTimes="0;1" dur="0.7462686567164178s" begin="-0.3365525314603453s" repeatCount="indefinite"></animate>
  </rect>
</g><g transform="rotate(197.64705882352942 50 50)">
  <rect x="39" y="21" rx="11" ry="8" width="22" height="16" fill="#37bbed">
    <animate attributeName="opacity" values="1;0" keyTimes="0;1" dur="0.7462686567164178s" begin="-0.32191981270119985s" repeatCount="indefinite"></animate>
  </rect>
</g><g transform="rotate(204.7058823529412 50 50)">
  <rect x="39" y="21" rx="11" ry="8" width="22" height="16" fill="#37bbed">
    <animate attributeName="opacity" values="1;0" keyTimes="0;1" dur="0.7462686567164178s" begin="-0.30728709394205445s" repeatCount="indefinite"></animate>
  </rect>
</g><g transform="rotate(211.76470588235293 50 50)">
  <rect x="39" y="21" rx="11" ry="8" width="22" height="16" fill="#37bbed">
    <animate attributeName="opacity" values="1;0" keyTimes="0;1" dur="0.7462686567164178s" begin="-0.292654375182909s" repeatCount="indefinite"></animate>
  </rect>
</g><g transform="rotate(218.8235294117647 50 50)">
  <rect x="39" y="21" rx="11" ry="8" width="22" height="16" fill="#37bbed">
    <animate attributeName="opacity" values="1;0" keyTimes="0;1" dur="0.7462686567164178s" begin="-0.27802165642376353s" repeatCount="indefinite"></animate>
  </rect>
</g><g transform="rotate(225.88235294117646 50 50)">
  <rect x="39" y="21" rx="11" ry="8" width="22" height="16" fill="#37bbed">
    <animate attributeName="opacity" values="1;0" keyTimes="0;1" dur="0.7462686567164178s" begin="-0.2633889376646181s" repeatCount="indefinite"></animate>
  </rect>
</g><g transform="rotate(232.94117647058823 50 50)">
  <rect x="39" y="21" rx="11" ry="8" width="22" height="16" fill="#37bbed">
    <animate attributeName="opacity" values="1;0" keyTimes="0;1" dur="0.7462686567164178s" begin="-0.24875621890547261s" repeatCount="indefinite"></animate>
  </rect>
</g><g transform="rotate(240 50 50)">
  <rect x="39" y="21" rx="11" ry="8" width="22" height="16" fill="#37bbed">
    <animate attributeName="opacity" values="1;0" keyTimes="0;1" dur="0.7462686567164178s" begin="-0.23412350014632718s" repeatCount="indefinite"></animate>
  </rect>
</g><g transform="rotate(247.05882352941177 50 50)">
  <rect x="39" y="21" rx="11" ry="8" width="22" height="16" fill="#37bbed">
    <animate attributeName="opacity" values="1;0" keyTimes="0;1" dur="0.7462686567164178s" begin="-0.21949078138718173s" repeatCount="indefinite"></animate>
  </rect>
</g><g transform="rotate(254.11764705882354 50 50)">
  <rect x="39" y="21" rx="11" ry="8" width="22" height="16" fill="#37bbed">
    <animate attributeName="opacity" values="1;0" keyTimes="0;1" dur="0.7462686567164178s" begin="-0.20485806262803627s" repeatCount="indefinite"></animate>
  </rect>
</g><g transform="rotate(261.1764705882353 50 50)">
  <rect x="39" y="21" rx="11" ry="8" width="22" height="16" fill="#37bbed">
    <animate attributeName="opacity" values="1;0" keyTimes="0;1" dur="0.7462686567164178s" begin="-0.19022534386889084s" repeatCount="indefinite"></animate>
  </rect>
</g><g transform="rotate(268.2352941176471 50 50)">
  <rect x="39" y="21" rx="11" ry="8" width="22" height="16" fill="#37bbed">
    <animate attributeName="opacity" values="1;0" keyTimes="0;1" dur="0.7462686567164178s" begin="-0.17559262510974538s" repeatCount="indefinite"></animate>
  </rect>
</g><g transform="rotate(275.29411764705884 50 50)">
  <rect x="39" y="21" rx="11" ry="8" width="22" height="16" fill="#37bbed">
    <animate attributeName="opacity" values="1;0" keyTimes="0;1" dur="0.7462686567164178s" begin="-0.16095990635059992s" repeatCount="indefinite"></animate>
  </rect>
</g><g transform="rotate(282.3529411764706 50 50)">
  <rect x="39" y="21" rx="11" ry="8" width="22" height="16" fill="#37bbed">
    <animate attributeName="opacity" values="1;0" keyTimes="0;1" dur="0.7462686567164178s" begin="-0.1463271875914545s" repeatCount="indefinite"></animate>
  </rect>
</g><g transform="rotate(289.4117647058824 50 50)">
  <rect x="39" y="21" rx="11" ry="8" width="22" height="16" fill="#37bbed">
    <animate attributeName="opacity" values="1;0" keyTimes="0;1" dur="0.7462686567164178s" begin="-0.13169446883230904s" repeatCount="indefinite"></animate>
  </rect>
</g><g transform="rotate(296.47058823529414 50 50)">
  <rect x="39" y="21" rx="11" ry="8" width="22" height="16" fill="#37bbed">
    <animate attributeName="opacity" values="1;0" keyTimes="0;1" dur="0.7462686567164178s" begin="-0.11706175007316359s" repeatCount="indefinite"></animate>
  </rect>
</g><g transform="rotate(303.52941176470586 50 50)">
  <rect x="39" y="21" rx="11" ry="8" width="22" height="16" fill="#37bbed">
    <animate attributeName="opacity" values="1;0" keyTimes="0;1" dur="0.7462686567164178s" begin="-0.10242903131401813s" repeatCount="indefinite"></animate>
  </rect>
</g><g transform="rotate(310.5882352941176 50 50)">
  <rect x="39" y="21" rx="11" ry="8" width="22" height="16" fill="#37bbed">
    <animate attributeName="opacity" values="1;0" keyTimes="0;1" dur="0.7462686567164178s" begin="-0.08779631255487269s" repeatCount="indefinite"></animate>
  </rect>
</g><g transform="rotate(317.6470588235294 50 50)">
  <rect x="39" y="21" rx="11" ry="8" width="22" height="16" fill="#37bbed">
    <animate attributeName="opacity" values="1;0" keyTimes="0;1" dur="0.7462686567164178s" begin="-0.07316359379572725s" repeatCount="indefinite"></animate>
  </rect>
</g><g transform="rotate(324.70588235294116 50 50)">
  <rect x="39" y="21" rx="11" ry="8" width="22" height="16" fill="#37bbed">
    <animate attributeName="opacity" values="1;0" keyTimes="0;1" dur="0.7462686567164178s" begin="-0.058530875036581796s" repeatCount="indefinite"></animate>
  </rect>
</g><g transform="rotate(331.7647058823529 50 50)">
  <rect x="39" y="21" rx="11" ry="8" width="22" height="16" fill="#37bbed">
    <animate attributeName="opacity" values="1;0" keyTimes="0;1" dur="0.7462686567164178s" begin="-0.043898156277436345s" repeatCount="indefinite"></animate>
  </rect>
</g><g transform="rotate(338.8235294117647 50 50)">
  <rect x="39" y="21" rx="11" ry="8" width="22" height="16" fill="#37bbed">
    <animate attributeName="opacity" values="1;0" keyTimes="0;1" dur="0.7462686567164178s" begin="-0.029265437518290898s" repeatCount="indefinite"></animate>
  </rect>
</g><g transform="rotate(345.88235294117646 50 50)">
  <rect x="39" y="21" rx="11" ry="8" width="22" height="16" fill="#37bbed">
    <animate attributeName="opacity" values="1;0" keyTimes="0;1" dur="0.7462686567164178s" begin="-0.014632718759145449s" repeatCount="indefinite"></animate>
  </rect>
</g><g transform="rotate(352.94117647058823 50 50)">
  <rect x="39" y="21" rx="11" ry="8" width="22" height="16" fill="#37bbed">
    <animate attributeName="opacity" values="1;0" keyTimes="0;1" dur="0.7462686567164178s" begin="0s" repeatCount="indefinite"></animate>
  </rect>
</g>
<!-- [ldio] generated by https://loading.io/ --></svg>